<svg width="167" height="59" viewBox="0 0 167 59" fill="none" xmlns="http://www.w3.org/2000/svg">
<rect width="167" height="59" rx="24" fill="#DA722C"/>
<path d="M36.194 33.624H40.226V36H33.116V23.364H36.194V33.624ZM51.1621 30.816C51.1621 31.104 51.1441 31.404 51.1081 31.716H44.1421C44.1901 32.34 44.3881 32.82 44.7361 33.156C45.0961 33.48 45.5341 33.642 46.0501 33.642C46.8181 33.642 47.3521 33.318 47.6521 32.67H50.9281C50.7601 33.33 50.4541 33.924 50.0101 34.452C49.5781 34.98 49.0321 35.394 48.3721 35.694C47.7121 35.994 46.9741 36.144 46.1581 36.144C45.1741 36.144 44.2981 35.934 43.5301 35.514C42.7621 35.094 42.1621 34.494 41.7301 33.714C41.2981 32.934 41.0821 32.022 41.0821 30.978C41.0821 29.934 41.2921 29.022 41.7121 28.242C42.1441 27.462 42.7441 26.862 43.5121 26.442C44.2801 26.022 45.1621 25.812 46.1581 25.812C47.1301 25.812 47.9941 26.016 48.7501 26.424C49.5061 26.832 50.0941 27.414 50.5141 28.17C50.9461 28.926 51.1621 29.808 51.1621 30.816ZM48.0121 30.006C48.0121 29.478 47.8321 29.058 47.4721 28.746C47.1121 28.434 46.6621 28.278 46.1221 28.278C45.6061 28.278 45.1681 28.428 44.8081 28.728C44.4601 29.028 44.2441 29.454 44.1601 30.006H48.0121ZM52.1739 30.96C52.1739 29.928 52.3659 29.022 52.7499 28.242C53.1459 27.462 53.6799 26.862 54.3519 26.442C55.0239 26.022 55.7739 25.812 56.6019 25.812C57.3099 25.812 57.9279 25.956 58.4559 26.244C58.9959 26.532 59.4099 26.91 59.6979 27.378V25.956H62.7759V36H59.6979V34.578C59.3979 35.046 58.9779 35.424 58.4379 35.712C57.9099 36 57.2919 36.144 56.5839 36.144C55.7679 36.144 55.0239 35.934 54.3519 35.514C53.6799 35.082 53.1459 34.476 52.7499 33.696C52.3659 32.904 52.1739 31.992 52.1739 30.96ZM59.6979 30.978C59.6979 30.21 59.4819 29.604 59.0499 29.16C58.6299 28.716 58.1139 28.494 57.5019 28.494C56.8899 28.494 56.3679 28.716 55.9359 29.16C55.5159 29.592 55.3059 30.192 55.3059 30.96C55.3059 31.728 55.5159 32.34 55.9359 32.796C56.3679 33.24 56.8899 33.462 57.5019 33.462C58.1139 33.462 58.6299 33.24 59.0499 32.796C59.4819 32.352 59.6979 31.746 59.6979 30.978ZM68.0807 27.63C68.4407 27.078 68.8907 26.646 69.4307 26.334C69.9707 26.01 70.5707 25.848 71.2307 25.848V29.106H70.3847C69.6167 29.106 69.0407 29.274 68.6567 29.61C68.2727 29.934 68.0807 30.51 68.0807 31.338V36H65.0027V25.956H68.0807V27.63ZM78.8219 25.848C79.9979 25.848 80.9339 26.232 81.6299 27C82.3379 27.756 82.6919 28.8 82.6919 30.132V36H79.6319V30.546C79.6319 29.874 79.4579 29.352 79.1099 28.98C78.7619 28.608 78.2939 28.422 77.7059 28.422C77.1179 28.422 76.6499 28.608 76.3019 28.98C75.9539 29.352 75.7799 29.874 75.7799 30.546V36H72.7019V25.956H75.7799V27.288C76.0919 26.844 76.5119 26.496 77.0399 26.244C77.5679 25.98 78.1619 25.848 78.8219 25.848ZM102.955 23.364V36H99.8773V28.422L97.0513 36H94.5673L91.7233 28.404V36H88.6453V23.364H92.2813L95.8273 32.112L99.3373 23.364H102.955ZM109.741 36.144C108.757 36.144 107.869 35.934 107.077 35.514C106.297 35.094 105.679 34.494 105.223 33.714C104.779 32.934 104.557 32.022 104.557 30.978C104.557 29.946 104.785 29.04 105.241 28.26C105.697 27.468 106.321 26.862 107.113 26.442C107.905 26.022 108.793 25.812 109.777 25.812C110.761 25.812 111.649 26.022 112.441 26.442C113.233 26.862 113.857 27.468 114.313 28.26C114.769 29.04 114.997 29.946 114.997 30.978C114.997 32.01 114.763 32.922 114.295 33.714C113.839 34.494 113.209 35.094 112.405 35.514C111.613 35.934 110.725 36.144 109.741 36.144ZM109.741 33.48C110.329 33.48 110.827 33.264 111.235 32.832C111.655 32.4 111.865 31.782 111.865 30.978C111.865 30.174 111.661 29.556 111.253 29.124C110.857 28.692 110.365 28.476 109.777 28.476C109.177 28.476 108.679 28.692 108.283 29.124C107.887 29.544 107.689 30.162 107.689 30.978C107.689 31.782 107.881 32.4 108.265 32.832C108.661 33.264 109.153 33.48 109.741 33.48ZM119.708 27.63C120.068 27.078 120.518 26.646 121.058 26.334C121.598 26.01 122.198 25.848 122.858 25.848V29.106H122.012C121.244 29.106 120.668 29.274 120.284 29.61C119.9 29.934 119.708 30.51 119.708 31.338V36H116.63V25.956H119.708V27.63ZM133.797 30.816C133.797 31.104 133.779 31.404 133.743 31.716H126.777C126.825 32.34 127.023 32.82 127.371 33.156C127.731 33.48 128.169 33.642 128.685 33.642C129.453 33.642 129.987 33.318 130.287 32.67H133.563C133.395 33.33 133.089 33.924 132.645 34.452C132.213 34.98 131.667 35.394 131.007 35.694C130.347 35.994 129.609 36.144 128.793 36.144C127.809 36.144 126.933 35.934 126.165 35.514C125.397 35.094 124.797 34.494 124.365 33.714C123.933 32.934 123.717 32.022 123.717 30.978C123.717 29.934 123.927 29.022 124.347 28.242C124.779 27.462 125.379 26.862 126.147 26.442C126.915 26.022 127.797 25.812 128.793 25.812C129.765 25.812 130.629 26.016 131.385 26.424C132.141 26.832 132.729 27.414 133.149 28.17C133.581 28.926 133.797 29.808 133.797 30.816ZM130.647 30.006C130.647 29.478 130.467 29.058 130.107 28.746C129.747 28.434 129.297 28.278 128.757 28.278C128.241 28.278 127.803 28.428 127.443 28.728C127.095 29.028 126.879 29.454 126.795 30.006H130.647Z" fill="white"/>
</svg>
