<svg width="168" height="59" viewBox="0 0 168 59" fill="none" xmlns="http://www.w3.org/2000/svg">
<rect width="168" height="59" rx="24" fill="#DA722C"/>
<path d="M40.982 33.768H36.266L35.51 36H32.288L36.86 23.364H40.424L44.996 36H41.738L40.982 33.768ZM40.19 31.392L38.624 26.766L37.076 31.392H40.19ZM49.4655 22.68V36H46.3875V22.68H49.4655ZM54.7741 22.68V36H51.6961V22.68H54.7741ZM60.2971 29.664C60.2971 28.416 60.5671 27.306 61.1071 26.334C61.6471 25.35 62.3971 24.588 63.3571 24.048C64.3291 23.496 65.4271 23.22 66.6511 23.22C68.1511 23.22 69.4351 23.616 70.5031 24.408C71.5711 25.2 72.2851 26.28 72.6451 27.648H69.2611C69.0091 27.12 68.6491 26.718 68.1811 26.442C67.7251 26.166 67.2031 26.028 66.6151 26.028C65.6671 26.028 64.8991 26.358 64.3111 27.018C63.7231 27.678 63.4291 28.56 63.4291 29.664C63.4291 30.768 63.7231 31.65 64.3111 32.31C64.8991 32.97 65.6671 33.3 66.6151 33.3C67.2031 33.3 67.7251 33.162 68.1811 32.886C68.6491 32.61 69.0091 32.208 69.2611 31.68H72.6451C72.2851 33.048 71.5711 34.128 70.5031 34.92C69.4351 35.7 68.1511 36.09 66.6511 36.09C65.4271 36.09 64.3291 35.82 63.3571 35.28C62.3971 34.728 61.6471 33.966 61.1071 32.994C60.5671 32.022 60.2971 30.912 60.2971 29.664ZM79.1021 36.144C78.1181 36.144 77.2301 35.934 76.4381 35.514C75.6581 35.094 75.0401 34.494 74.5841 33.714C74.1401 32.934 73.9181 32.022 73.9181 30.978C73.9181 29.946 74.1461 29.04 74.6021 28.26C75.0581 27.468 75.6821 26.862 76.4741 26.442C77.2661 26.022 78.1541 25.812 79.1381 25.812C80.1221 25.812 81.0101 26.022 81.8021 26.442C82.5941 26.862 83.2181 27.468 83.6741 28.26C84.1301 29.04 84.3581 29.946 84.3581 30.978C84.3581 32.01 84.1241 32.922 83.6561 33.714C83.2001 34.494 82.5701 35.094 81.7661 35.514C80.9741 35.934 80.0861 36.144 79.1021 36.144ZM79.1021 33.48C79.6901 33.48 80.1881 33.264 80.5961 32.832C81.0161 32.4 81.2261 31.782 81.2261 30.978C81.2261 30.174 81.0221 29.556 80.6141 29.124C80.2181 28.692 79.7261 28.476 79.1381 28.476C78.5381 28.476 78.0401 28.692 77.6441 29.124C77.2481 29.544 77.0501 30.162 77.0501 30.978C77.0501 31.782 77.2421 32.4 77.6261 32.832C78.0221 33.264 78.5141 33.48 79.1021 33.48ZM95.909 25.956V36H92.831V34.632C92.519 35.076 92.093 35.436 91.553 35.712C91.025 35.976 90.437 36.108 89.789 36.108C89.021 36.108 88.343 35.94 87.755 35.604C87.167 35.256 86.711 34.758 86.387 34.11C86.063 33.462 85.901 32.7 85.901 31.824V25.956H88.961V31.41C88.961 32.082 89.135 32.604 89.483 32.976C89.831 33.348 90.299 33.534 90.887 33.534C91.487 33.534 91.961 33.348 92.309 32.976C92.657 32.604 92.831 32.082 92.831 31.41V25.956H95.909ZM101.198 27.63C101.558 27.078 102.008 26.646 102.548 26.334C103.088 26.01 103.688 25.848 104.348 25.848V29.106H103.502C102.734 29.106 102.158 29.274 101.774 29.61C101.39 29.934 101.198 30.51 101.198 31.338V36H98.1199V25.956H101.198V27.63ZM109.905 36.144C109.029 36.144 108.249 35.994 107.565 35.694C106.881 35.394 106.341 34.986 105.945 34.47C105.549 33.942 105.327 33.354 105.279 32.706H108.321C108.357 33.054 108.519 33.336 108.807 33.552C109.095 33.768 109.449 33.876 109.869 33.876C110.253 33.876 110.547 33.804 110.751 33.66C110.967 33.504 111.075 33.306 111.075 33.066C111.075 32.778 110.925 32.568 110.625 32.436C110.325 32.292 109.839 32.136 109.167 31.968C108.447 31.8 107.847 31.626 107.367 31.446C106.887 31.254 106.473 30.96 106.125 30.564C105.777 30.156 105.603 29.61 105.603 28.926C105.603 28.35 105.759 27.828 106.071 27.36C106.395 26.88 106.863 26.502 107.475 26.226C108.099 25.95 108.837 25.812 109.689 25.812C110.949 25.812 111.939 26.124 112.659 26.748C113.391 27.372 113.811 28.2 113.919 29.232H111.075C111.027 28.884 110.871 28.608 110.607 28.404C110.355 28.2 110.019 28.098 109.599 28.098C109.239 28.098 108.963 28.17 108.771 28.314C108.579 28.446 108.483 28.632 108.483 28.872C108.483 29.16 108.633 29.376 108.933 29.52C109.245 29.664 109.725 29.808 110.373 29.952C111.117 30.144 111.723 30.336 112.191 30.528C112.659 30.708 113.067 31.008 113.415 31.428C113.775 31.836 113.961 32.388 113.973 33.084C113.973 33.672 113.805 34.2 113.469 34.668C113.145 35.124 112.671 35.484 112.047 35.748C111.435 36.012 110.721 36.144 109.905 36.144ZM125.324 30.816C125.324 31.104 125.306 31.404 125.27 31.716H118.304C118.352 32.34 118.55 32.82 118.898 33.156C119.258 33.48 119.696 33.642 120.212 33.642C120.98 33.642 121.514 33.318 121.814 32.67H125.09C124.922 33.33 124.616 33.924 124.172 34.452C123.74 34.98 123.194 35.394 122.534 35.694C121.874 35.994 121.136 36.144 120.32 36.144C119.336 36.144 118.46 35.934 117.692 35.514C116.924 35.094 116.324 34.494 115.892 33.714C115.46 32.934 115.244 32.022 115.244 30.978C115.244 29.934 115.454 29.022 115.874 28.242C116.306 27.462 116.906 26.862 117.674 26.442C118.442 26.022 119.324 25.812 120.32 25.812C121.292 25.812 122.156 26.016 122.912 26.424C123.668 26.832 124.256 27.414 124.676 28.17C125.108 28.926 125.324 29.808 125.324 30.816ZM122.174 30.006C122.174 29.478 121.994 29.058 121.634 28.746C121.274 28.434 120.824 28.278 120.284 28.278C119.768 28.278 119.33 28.428 118.97 28.728C118.622 29.028 118.406 29.454 118.322 30.006H122.174ZM131.034 36.144C130.158 36.144 129.378 35.994 128.694 35.694C128.01 35.394 127.47 34.986 127.074 34.47C126.678 33.942 126.456 33.354 126.408 32.706H129.45C129.486 33.054 129.648 33.336 129.936 33.552C130.224 33.768 130.578 33.876 130.998 33.876C131.382 33.876 131.676 33.804 131.88 33.66C132.096 33.504 132.204 33.306 132.204 33.066C132.204 32.778 132.054 32.568 131.754 32.436C131.454 32.292 130.968 32.136 130.296 31.968C129.576 31.8 128.976 31.626 128.496 31.446C128.016 31.254 127.602 30.96 127.254 30.564C126.906 30.156 126.732 29.61 126.732 28.926C126.732 28.35 126.888 27.828 127.2 27.36C127.524 26.88 127.992 26.502 128.604 26.226C129.228 25.95 129.966 25.812 130.818 25.812C132.078 25.812 133.068 26.124 133.788 26.748C134.52 27.372 134.94 28.2 135.048 29.232H132.204C132.156 28.884 132 28.608 131.736 28.404C131.484 28.2 131.148 28.098 130.728 28.098C130.368 28.098 130.092 28.17 129.9 28.314C129.708 28.446 129.612 28.632 129.612 28.872C129.612 29.16 129.762 29.376 130.062 29.52C130.374 29.664 130.854 29.808 131.502 29.952C132.246 30.144 132.852 30.336 133.32 30.528C133.788 30.708 134.196 31.008 134.544 31.428C134.904 31.836 135.09 32.388 135.102 33.084C135.102 33.672 134.934 34.2 134.598 34.668C134.274 35.124 133.8 35.484 133.176 35.748C132.564 36.012 131.85 36.144 131.034 36.144Z" fill="white"/>
</svg>
