<svg width="90" height="15" viewBox="0 0 90 15" fill="none" xmlns="http://www.w3.org/2000/svg">
<path d="M3.194 3.83V6.386H7.316V8.762H3.194V11.534H7.856V14H0.116V1.364H7.856V3.83H3.194ZM15.9743 3.848C17.1503 3.848 18.0863 4.232 18.7823 5C19.4903 5.756 19.8443 6.8 19.8443 8.132V14H16.7843V8.546C16.7843 7.874 16.6103 7.352 16.2623 6.98C15.9143 6.608 15.4463 6.422 14.8583 6.422C14.2703 6.422 13.8023 6.608 13.4543 6.98C13.1063 7.352 12.9323 7.874 12.9323 8.546V14H9.85428V3.956H12.9323V5.288C13.2443 4.844 13.6643 4.496 14.1923 4.244C14.7203 3.98 15.3143 3.848 15.9743 3.848ZM25.0612 5.63C25.4212 5.078 25.8712 4.646 26.4112 4.334C26.9512 4.01 27.5512 3.848 28.2112 3.848V7.106H27.3652C26.5972 7.106 26.0212 7.274 25.6372 7.61C25.2532 7.934 25.0612 8.51 25.0612 9.338V14H21.9832V3.956H25.0612V5.63ZM34.2544 14.144C33.2704 14.144 32.3824 13.934 31.5904 13.514C30.8104 13.094 30.1924 12.494 29.7364 11.714C29.2924 10.934 29.0704 10.022 29.0704 8.978C29.0704 7.946 29.2984 7.04 29.7544 6.26C30.2104 5.468 30.8344 4.862 31.6264 4.442C32.4184 4.022 33.3064 3.812 34.2904 3.812C35.2744 3.812 36.1624 4.022 36.9544 4.442C37.7464 4.862 38.3704 5.468 38.8264 6.26C39.2824 7.04 39.5104 7.946 39.5104 8.978C39.5104 10.01 39.2764 10.922 38.8084 11.714C38.3524 12.494 37.7224 13.094 36.9184 13.514C36.1264 13.934 35.2384 14.144 34.2544 14.144ZM34.2544 11.48C34.8424 11.48 35.3404 11.264 35.7484 10.832C36.1684 10.4 36.3784 9.782 36.3784 8.978C36.3784 8.174 36.1744 7.556 35.7664 7.124C35.3704 6.692 34.8784 6.476 34.2904 6.476C33.6904 6.476 33.1924 6.692 32.7964 7.124C32.4004 7.544 32.2024 8.162 32.2024 8.978C32.2024 9.782 32.3944 10.4 32.7784 10.832C33.1744 11.264 33.6664 11.48 34.2544 11.48ZM44.2213 0.68V14H41.1433V0.68H44.2213ZM61.5704 14H58.4924L53.3444 6.206V14H50.2664V1.364H53.3444L58.4924 9.194V1.364H61.5704V14ZM68.3735 14.144C67.3895 14.144 66.5015 13.934 65.7095 13.514C64.9295 13.094 64.3115 12.494 63.8555 11.714C63.4115 10.934 63.1895 10.022 63.1895 8.978C63.1895 7.946 63.4175 7.04 63.8735 6.26C64.3295 5.468 64.9535 4.862 65.7455 4.442C66.5375 4.022 67.4255 3.812 68.4095 3.812C69.3935 3.812 70.2815 4.022 71.0735 4.442C71.8655 4.862 72.4895 5.468 72.9455 6.26C73.4015 7.04 73.6295 7.946 73.6295 8.978C73.6295 10.01 73.3955 10.922 72.9275 11.714C72.4715 12.494 71.8415 13.094 71.0375 13.514C70.2455 13.934 69.3575 14.144 68.3735 14.144ZM68.3735 11.48C68.9615 11.48 69.4595 11.264 69.8675 10.832C70.2875 10.4 70.4975 9.782 70.4975 8.978C70.4975 8.174 70.2935 7.556 69.8855 7.124C69.4895 6.692 68.9975 6.476 68.4095 6.476C67.8095 6.476 67.3115 6.692 66.9155 7.124C66.5195 7.544 66.3215 8.162 66.3215 8.978C66.3215 9.782 66.5135 10.4 66.8975 10.832C67.2935 11.264 67.7855 11.48 68.3735 11.48ZM89.6805 3.956L86.9625 14H83.5605L81.9765 7.484L80.3385 14H76.9545L74.2185 3.956H77.2965L78.7185 11.138L80.4105 3.956H83.6685L85.3785 11.102L86.7825 3.956H89.6805Z" fill="white"/>
</svg>
